<svg style="position:absolute;width:0;height:0" xmlns="http://www.w3.org/2000/svg" overflow="hidden"><defs><symbol id="icon-heart-full" viewBox="0 0 32 32"><path d="M16.042 8.345s-2-4.262-6.5-4.262c-4.917 0-7.5 4.167-7.5 8.333 0 6.917 14 15.5 14 15.5s13.916-8.5 13.916-15.5c0-4.25-2.666-8.333-7.416-8.333s-6.5 4.262-6.5 4.262z"/></symbol><symbol id="icon-presentation" viewBox="0 0 31 32"><path d="M.5 3a.5.5 0 00-.5.5v17c0 .827.673 1.5 1.5 1.5h28c.827 0 1.5-.673 1.5-1.5v-17a.5.5 0 00-1 0v17a.5.5 0 01-.5.5h-28a.5.5 0 01-.5-.5v-17A.5.5 0 00.5 3zm32-3h-34a.5.5 0 000 1h34a.5.5 0 000-1zM11.854 8.146a.5.5 0 00-.674-.031l-6 5a.5.5 0 00.641.769l5.649-4.708 5.677 5.677a.502.502 0 00.707.001L25 7.707V11.5a.5.5 0 001 0v-5a.504.504 0 00-.309-.462A.504.504 0 0025.5 6h-5a.5.5 0 000 1h3.793L17.5 13.793l-5.646-5.647zM8.057 31.732a.5.5 0 00.675.211l6.768-3.545 6.768 3.545a.5.5 0 00.464-.886l-6.893-3.61a.494.494 0 00.161-.364V24.5a.5.5 0 00-1 0v2.583c0 .144.063.272.161.363l-6.893 3.61a.501.501 0 00-.211.676z"/></symbol><symbol id="icon-expand" viewBox="0 0 32 32"><path d="M32 30.5v-29c0-.827-.673-1.5-1.5-1.5h-29C.673 0 0 .673 0 1.5v9a.5.5 0 001 0v-9a.5.5 0 01.5-.5h29a.5.5 0 01.5.5v29a.5.5 0 01-.5.5h-9a.5.5 0 000 1h9c.827 0 1.5-.673 1.5-1.5zM1.5 13c-.827 0-1.5.673-1.5 1.5v16c0 .827.673 1.5 1.5 1.5h16c.827 0 1.5-.673 1.5-1.5V13.707l7-7V13.5a.5.5 0 001 0v-8a.5.5 0 00-.5-.5h-8a.5.5 0 000 1h6.792l-7 7H1.5zM18 30.5a.5.5 0 01-.5.5h-16a.5.5 0 01-.5-.5v-16a.5.5 0 01.5-.5H18v16.5z"/></symbol><symbol id="icon-lock" viewBox="0 0 28 32"><path d="M14 0C8.486 0 4 4.486 4 10v3H2.5A2.503 2.503 0 000 15.5v14C0 30.878 1.122 32 2.5 32h23c1.378 0 2.5-1.122 2.5-2.5v-14c0-1.378-1.122-2.5-2.5-2.5H24v-3c0-5.514-4.486-10-10-10zM5 10c0-4.962 4.038-9 9-9s9 4.038 9 9v3h-3v-3c0-3.309-2.691-6-6-6s-6 2.691-6 6v3H5v-3zm14 3H9v-3c0-2.757 2.243-5 5-5s5 2.243 5 5v3zm-6.707 8l-5 5H2.707l5-5h4.586zm6 0l-5 5H8.707l5-5h4.586zm6 0l-5 5h-4.586l5-5h4.586zM27 21v5h-6.293l5-5H27zM1.293 26H1v-5h5.293l-5 5zM25.5 31h-23c-.827 0-1.5-.673-1.5-1.5V27h26v2.5c0 .827-.673 1.5-1.5 1.5zM27 15.5V20H1v-4.5c0-.827.673-1.5 1.5-1.5h23c.827 0 1.5.673 1.5 1.5z"/></symbol><symbol id="icon-trophy" viewBox="0 0 34 32"><path d="M25.5 1a.5.5 0 000-1h-17a.5.5 0 000 1h17zm0 1h-19C3.217 2 1.687 3.166.981 4.144.117 5.344-.045 6.947.525 8.658c.882 2.646 3.846 5.825 5.668 7.237a.5.5 0 00.614-.791c-1.674-1.296-4.525-4.342-5.332-6.763-.467-1.397-.354-2.68.318-3.612C2.608 3.598 4.235 3 6.5 3H8v9.5c0 6.726 6.673 10.601 8.036 11.322A.504.504 0 0016 24v2.5a.5.5 0 001 0V24a.499.499 0 00-.033-.164C18.481 23.124 26 19.25 26 12.5V3h1.5c2.265 0 3.892.598 4.707 1.729.672.932.785 2.215.318 3.613-.63 1.891-3.769 5.553-5.332 6.763a.5.5 0 00.614.791c1.732-1.342 4.961-5.119 5.668-7.237.57-1.711.408-3.314-.456-4.514C32.313 3.166 30.783 2 27.5 2h-2zM25 12.5c0 6.093-7.152 9.804-8.486 10.443C15.286 22.278 9 18.576 9 12.5V3h16v9.5zM11 28c-1.141 0-2 .86-2 2v1.5a.5.5 0 00.5.5h14a.5.5 0 00.5-.5v-1.425C24 28.912 23.121 28 22 28H11zm12 2.075V31H10v-1c0-.589.411-1 1-1h11c.57 0 1 .462 1 1.075z"/></symbol><symbol id="icon-key" viewBox="0 0 32 32"><path d="M14.683 14.698a.5.5 0 00.33-.124L26.33 4.652l-.66-.752-11.317 9.921a.5.5 0 00.33.877zM10.188 32C16.33 32 20 27.17 20 22.5c0-1.346-.322-2.829-.798-3.792l4.522-2.261A.5.5 0 0024 16v-4h3l.113-.006c.666-.045.865-.257.887-.994V7h3c.129 0 .218.014.278.023.121.019.347.054.543-.122.202-.18.193-.408.185-.609C32.004 6.22 32 6.125 32 6V1.469A1.47 1.47 0 0030.531 0h-3.875a1.48 1.48 0 00-.969.364L12.5 11.924c-.649-.13-1.63-.299-2.313-.299C4.57 11.625 0 16.195 0 21.812S4.57 32 10.188 32zm0-19.375c.501 0 1.359.12 2.354.328a.495.495 0 00.432-.113L26.345 1.118A.474.474 0 0126.656 1h3.875c.259 0 .469.21.469.469V6h-3.5a.5.5 0 00-.5.5V11h-3.5a.5.5 0 00-.5.5v4.191l-4.724 2.362a.5.5 0 00-.182.74c.44.607.906 2.114.906 3.707 0 4.178-3.296 8.5-8.812 8.5C5.122 31 1 26.878 1 21.812s4.122-9.187 9.188-9.187zM8.5 27c1.93 0 3.5-1.57 3.5-3.5S10.43 20 8.5 20 5 21.57 5 23.5 6.57 27 8.5 27zm0-6c1.378 0 2.5 1.122 2.5 2.5S9.878 26 8.5 26 6 24.878 6 23.5 7.122 21 8.5 21z"/></symbol><symbol id="icon-profile-male" viewBox="0 0 36 32"><path d="M.5 31.983a.503.503 0 00.612-.354c1.03-3.843 5.216-4.839 7.718-5.435.627-.149 1.122-.267 1.444-.406 2.85-1.237 3.779-3.227 4.057-4.679a.5.5 0 00-.165-.473c-1.484-1.281-2.736-3.204-3.526-5.416a.492.492 0 00-.103-.171c-1.045-1.136-1.645-2.337-1.645-3.294 0-.559.211-.934.686-1.217a.5.5 0 00.243-.408C10.042 5.036 13.67 1.026 18.12 1l.107.007c4.472.062 8.077 4.158 8.206 9.324a.498.498 0 00.178.369c.313.265.459.601.459 1.057 0 .801-.427 1.786-1.201 2.772a.522.522 0 00-.084.158c-.8 2.536-2.236 4.775-3.938 6.145a.502.502 0 00-.178.483c.278 1.451 1.207 3.44 4.057 4.679.337.146.86.26 1.523.403 2.477.536 6.622 1.435 7.639 5.232a.5.5 0 00.966-.26c-1.175-4.387-5.871-5.404-8.393-5.95-.585-.127-1.09-.236-1.336-.344-1.86-.808-3.006-2.039-3.411-3.665 1.727-1.483 3.172-3.771 3.998-6.337.877-1.14 1.359-2.314 1.359-3.317 0-.669-.216-1.227-.644-1.663C27.189 4.489 23.19.076 18.227.005l-.149-.002c-4.873.026-8.889 4.323-9.24 9.83-.626.46-.944 1.105-.944 1.924 0 1.183.669 2.598 1.84 3.896.809 2.223 2.063 4.176 3.556 5.543-.403 1.632-1.55 2.867-3.414 3.676-.241.105-.721.22-1.277.352-2.541.604-7.269 1.729-8.453 6.147a.5.5 0 00.354.612z"/></symbol><symbol id="icon-map-pin" viewBox="0 0 24 32"><path d="M12 0C5.383 0 0 5.394 0 12.022c0 9.927 11.201 19.459 11.678 19.86a.497.497 0 00.64.004C12.795 31.492 24 22.124 24 12.022 24 5.394 18.617 0 12 0zm.002 30.838C10.161 29.193 1 20.579 1 12.022 1 5.944 5.935 1 12 1s11 4.944 11 11.022c0 8.702-9.152 17.193-10.998 18.816zM12 6c-3.309 0-6 2.691-6 6s2.691 6 6 6 6-2.691 6-6-2.691-6-6-6zm0 11c-2.757 0-5-2.243-5-5s2.243-5 5-5 5 2.243 5 5-2.243 5-5 5z"/></symbol><symbol id="icon-heart" viewBox="0 0 37 32"><path d="M27 0a9.97 9.97 0 00-6.704 2.595A9.97 9.97 0 0018.5 4.749a10 10 0 00-1.796-2.155A9.974 9.974 0 0010 0C4.486 0 0 4.486 0 10c0 3.722 1.158 6.66 3.871 9.825 3.942 4.6 13.919 11.62 14.342 11.917a.496.496 0 00.574 0c.423-.297 10.4-7.317 14.343-11.917C35.842 16.66 37 13.722 37 10c0-5.514-4.486-10-10-10zm5.371 19.175C28.876 23.251 20.191 29.516 18.5 30.72c-1.691-1.204-10.376-7.469-13.87-11.545C2.085 16.206 1 13.462 1 10c0-4.963 4.038-9 9-9 2.227 0 4.37.829 6.032 2.335a9 9 0 012.02 2.664c.17.34.726.34.896 0a8.984 8.984 0 012.02-2.663A8.968 8.968 0 0127 1c4.962 0 9 4.037 9 9 0 3.462-1.085 6.206-3.629 9.175z"/></symbol><symbol id="icon-global" viewBox="0 0 32 32"><path d="M.034 16.668C.388 25.179 7.403 32 16 32s15.612-6.821 15.966-15.332A.493.493 0 0032 16.5c0-.036-.013-.067-.02-.1.003-.134.02-.265.02-.4 0-8.822-7.178-16-16-16S0 7.178 0 16c0 .135.017.266.02.4-.007.033-.02.064-.02.1 0 .06.015.115.034.168zm24.887 6.074a21.921 21.921 0 00-4.215-1.271c.158-1.453.251-2.962.28-4.47h4.98c-.091 2.054-.456 3.993-1.045 5.741zM26.965 17h3.984a14.885 14.885 0 01-2.663 7.579 17.158 17.158 0 00-2.457-1.44c.645-1.869 1.042-3.943 1.136-6.139zm-14.576 5.286C13.567 22.102 14.776 22 16 22s2.433.102 3.61.286C18.916 27.621 17.4 31 16 31s-2.916-3.379-3.611-8.714zm1.519 8.378c-2.751-.882-5.078-3.471-6.482-6.984a20.873 20.873 0 013.99-1.217c.459 3.496 1.298 6.542 2.492 8.201zm-1.634-19.955c1.217.188 2.465.291 3.726.291s2.509-.103 3.726-.291c.172 1.62.274 3.388.274 5.291h-8c0-1.903.102-3.671.274-5.291zM19.985 17a49.022 49.022 0 01-.26 4.291C18.509 21.103 17.262 21 16 21s-2.509.103-3.726.291a48.668 48.668 0 01-.26-4.291h7.971zm.6 5.463c1.404.282 2.743.692 3.99 1.217-1.404 3.513-3.731 6.102-6.482 6.984 1.193-1.659 2.032-4.705 2.492-8.201zM21 16c0-1.836-.102-3.696-.294-5.47 1.48-.292 2.896-.72 4.215-1.271C25.605 11.288 26 13.574 26 16h-5zm-.415-6.463c-.46-3.496-1.298-6.543-2.493-8.201 2.751.882 5.078 3.471 6.482 6.984a20.792 20.792 0 01-3.989 1.217zm-.974.177C18.433 9.898 17.224 10 16 10s-2.433-.102-3.611-.286C13.084 4.379 14.6 1 16 1s2.916 3.379 3.611 8.714zm-8.196-.177a20.895 20.895 0 01-3.99-1.217c1.404-3.513 3.731-6.102 6.482-6.984-1.193 1.659-2.032 4.705-2.492 8.201zm-.121.993A51.315 51.315 0 0011 16H6c0-2.426.395-4.712 1.079-6.742 1.319.552 2.735.979 4.215 1.272zm-.28 6.47c.029 1.508.122 3.017.28 4.471-1.48.292-2.896.72-4.215 1.271-.589-1.748-.954-3.687-1.045-5.742h4.98zM6.17 23.139a17.24 17.24 0 00-2.456 1.44A14.882 14.882 0 011.051 17h3.984c.094 2.196.491 4.27 1.135 6.139zM4.313 25.38a16.126 16.126 0 012.207-1.305c1.004 2.485 2.449 4.548 4.186 5.943a15.05 15.05 0 01-6.393-4.638zm16.981 4.637c1.738-1.394 3.182-3.458 4.186-5.943.79.384 1.522.826 2.207 1.305a15.033 15.033 0 01-6.393 4.638zM27 16c0-2.567-.428-4.987-1.17-7.139.88-.422 1.698-.907 2.457-1.44A14.91 14.91 0 0131 16h-4zm.688-9.38c-.685.479-1.417.921-2.207 1.305-1.004-2.485-2.449-4.549-4.186-5.943a15.062 15.062 0 016.393 4.638zM10.706 1.983C8.968 3.377 7.524 5.441 6.52 7.926A16.173 16.173 0 014.313 6.62a15.04 15.04 0 016.393-4.637zM3.714 7.421a17.185 17.185 0 002.456 1.44A21.954 21.954 0 005 16H1c0-3.19 1.009-6.145 2.714-8.579z"/></symbol></defs></svg>